<svg height="512" viewBox="0 0 60 60" width="512" xmlns="http://www.w3.org/2000/svg"><g id="Page-1" fill="none" fill-rule="evenodd"><g id="028---Grinder" fill="#c7a17a" fill-rule="nonzero"><path id="Shape" d="m34.3 3.046c-.2531484-.07953925-.5275305-.05520425-.7627289.06764659s-.4119269.33414378-.4912711.58735341l-4.38 13.95c-.1482045.4741308.0740997.9851748.522 1.2 6.7133771 3.2044974 10.9391268 10.0320643 10.8125867 17.4699553s-4.5820906 14.1177638-11.4005867 17.0920447c-.3645881.1591192-.6001929.5192018-.6.917v4.67c0 .5522847.4477153 1 1 1s1-.4477153 1-1v-4.026c7.1787688-3.4042489 11.8216958-10.5683751 11.9969207-18.5114808s-4.1472579-15.3050088-11.1689207-19.0225192l4.126-13.14c.079581-.25301642.0553842-.52728414-.0672668-.76245895-.122651-.2351748-.3337076-.41198936-.5867332-.49154105z"/><path id="Shape" d="m0 36c-.0040419 8.1125698 4.66855206 15.5007196 12 18.974v4.026c0 .5522847.4477153 1 1 1s1-.4477153 1-1v-4.67c.0001929-.3977982-.2354119-.7578808-.6-.917-6.81781368-2.9747368-11.27265774-9.6544279-11.39897885-17.0918794-.12632112-7.4374515 4.099117-14.2645726 10.81197885-17.4691206.4479003-.2148252.6702045-.7258692.522-1.2l-4.381-13.952c-.10717968-.34083137-.38804916-.59859287-.73680762-.67618824-.34875847-.07759536-.71242121.036764-.954.3-.24157879.26323601-.32437206.63535687-.21719238.97618824l4.126 13.14c-6.85442869 3.6607242-11.14541628 10.7893251-11.172 18.56z"/><path id="Shape" d="m8.259 44.984c0 .013-.008.026-.011.039-.28172882.9069308-.11586239 1.8937667.44688172 2.6587593s1.45543758 1.2171598 2.40511828 1.2182407c.3114084-.0006125.6204575-.0540368.914-.158.4547285-.1361087.8675686-.3851889 1.2-.724l4.786-4.776v6.758c-.003859.4644925.1041863.9230848.315 1.337.5049769 1.020692 1.5462256 1.6656069 2.685 1.663 1.6568542 0 3-1.3431458 3-3v-6.758l4.783 4.775c.3323731.339106.7452041.5885247 1.2.725.2935425.1039632.6025916.1573875.914.158.949363-.000847 1.8418687-.4526431 2.4046128-1.217241.562744-.7645979.7287981-1.7510624.4473872-2.657759 0-.014-.007-.027-.011-.041-.1354199-.4548035-.3842073-.8677286-.723-1.2l-4.772-4.784h6.757c.4710855.0037227.9359296-.1078537 1.354-.325.2798064-.1398146.5343052-.3253656.753-.549.5752473-.5571583.8978456-1.3251808.893-2.126.0036158-1.1331652-.635346-2.1704609-1.649-2.677-.4173764-.2159011-.8811041-.3267701-1.351-.323h-6.758l4.773-4.782c.3401619-.3317113.590046-.7447429.726-1.2.1051124-.2946544.1588925-.6051585.159-.918-.0016319-.9498222-.4543022-1.8424088-1.2196421-2.4049209-.7653399-.562512-1.7523608-.7280743-2.6593579-.4460791l-.036.009c-.4547285.1361087-.8675686.3851889-1.2.724l-4.785 4.776v-6.758c.0032264-.4709098-.1079599-.9355587-.324-1.354-.1404051-.280001-.326258-.5347885-.55-.754-.5579289-.5739985-1.3255361-.8960613-2.126-.892-1.1339752-.0037161-2.1720587.6356411-2.679 1.65-.2141465.4175866-.3242686.8807169-.321 1.35v6.758l-4.783-4.775c-.3323731-.339106-.7452041-.5885247-1.2-.725l-.036-.008c-.9071374-.2836401-1.8950997-.1189467-2.66117471.4436181-.76607497.5625647-1.21893568 1.4559351-1.21982529 2.4063819.00026282.3103753.05335437.6184415.157.911.13541994.4548035.38420734.8677286.723 1.2l4.777 4.789h-6.757c-.46453214-.0042136-.92320768.1038513-1.337.315-1.02036026.5053417-1.66513253 1.5463601-1.663 2.685 0 1.6568542 1.34314575 3 3 3h6.758l-4.773 4.782c-.34045109.3322728-.59035506.7460256-.726 1.202zm7.741-8.984c0-2.7614237 2.2385763-5 5-5s5 2.2385763 5 5-2.2385763 5-5 5c-2.7600532-.0033061-4.9966939-2.2399468-5-5zm5.9 14.426c-.0523921.1070891-.1235114.2039468-.21.286-.2339752.2143014-.554282.3076485-.8667543.2525985-.3124724-.05505-.5815937-.2522399-.7282457-.5335985-.0662063-.133817-.0988132-.2817494-.095-.431v-7.08c.6624.1066667 1.3376.1066667 2 0v7.08c.0014525.1479803-.0328533.2941228-.1.426zm9.7-5.226c.0862201.0854857.1542517.1875331.2.3.0072132.0339964.0169058.0674191.029.1.1181679.3498558.0296415.7364336-.229 1-.2462432.2601799-.6198179.3561976-.961.247-.0446204-.0174755-.0903964-.0318432-.137-.043-.1153215-.0447893-.2201705-.1128731-.308-.2l-5.012-5c.5379779-.403275 1.0154837-.8814542 1.418-1.42zm3.4-10.2c.1533417-.003789.305223.0305733.442.1.2943174.1436782.4989701.4231165.5471336.7470708.0481634.3239544-.0663444.6508434-.3061336.8739292-.0750678.071971-.1607305.1320023-.254.178-.1326489.0680795-.2799112.1027497-.429.101h-7.08c.1066667-.6624.1066667-1.3376 0-2zm-4.8-9.6c.0851981-.0865687.187322-.1546512.3-.2.033-.008.067-.018.1-.029.3503428-.1188582.7377781-.0289733 1 .232.1894315.1839325.29745.4359755.3.7.0000086.0882206-.0162639.1756853-.048.258-.0179265.0448025-.0323041.0909445-.043.138-.0467147.1157135-.1172407.2203101-.207.307l-5 5.013c-.4025899-.5381918-.8800922-1.0160308-1.418-1.419zm-10.1-3.843c.1462309-.292026.4258498-.4942444.7489823-.5416584s.6490578.0659514.8730177.3036584c.0716868.0731408.1308142.1576085.175.25.0689755.1331143.1043368.2810825.103.431v7.08c-.6624-.1066667-1.3376-.1066667-2 0v-7.08c-.0031725-.1536.031152-.3056574.1-.443zm-9.7 5.243c-.0862201-.0854857-.1542517-.1875331-.2-.3-.0110454-.0491475-.0260957-.0973084-.045-.144-.0338915-.081234-.0525356-.1680141-.055-.256.00255-.2640245.1105685-.5160675.3-.7.2625759-.2603329.6496213-.3501274 1-.232.032.01.065.02.1.027.1144912.0452571.218596.1132995.306.2l5.012 5c-.538048.4035808-1.0155572.8821002-1.418 1.421zm-3.821 10.1c-.10722923-.0535607-.20460757-.1249038-.288-.211-.18567742-.1812096-.29056546-.4295528-.291-.689.00271399-.3844647.22432295-.7337608.571-.9.13273685-.067733.27999464-.1020589.429-.1h7.08c-.1066667.6624-.1066667 1.3376 0 2h-7.08c-.1472596.0031178-.29308338-.0294781-.425-.095zm3.585 8.7c.0117019-.0326243.021059-.0660426.028-.1.0477668-.1128502.1178343-.2148903.206-.3l5-5.013c.4030301.5360679.8805118 1.011866 1.418 1.413l-5.013 5c-.0851981.0865687-.187322.1546512-.3.2-.0487355.0113642-.0965392.0264073-.143.045-.3405102.1090213-.7133768.0138626-.96-.245-.2613188-.2619526-.3526271-.6488521-.236-1z"/><circle id="Oval" cx="21" cy="59" r="1"/><circle id="Oval" cx="19" cy="56" r="1"/><circle id="Oval" cx="23" cy="56" r="1"/><path id="Shape" d="m16.1 3.1c-3.48 3.468-4.111 8.5-1.406 11.214 1.1624096 1.1165101 2.7238219 1.7205443 4.335 1.677 2.6066384-.0912264 5.0735609-1.2010004 6.871-3.091 3.479-3.468 4.11-8.5 1.405-11.213s-7.741-2.068-11.205 1.413zm1.412 1.41c1.4211769-1.51477156 3.3753731-2.41800465 5.45-2.519 1.0204486-.02497149 2.0135158.33160557 2.785 1-.370871.15288079-.761931.25123526-1.161.292-1.1829486.08443377-2.2941285.59876349-3.124 1.446-.84924.83113151-1.3656037 1.9438739-1.452 3.129-.0720724 1.56025998-1.3198159 2.8093032-2.88 2.883-.6773168.068103-1.3366597.2585196-1.946.562-.596-2.018.249-4.721 2.328-6.793zm6.978 6.978c-2.627 2.636-6.277 3.292-8.242 1.526.3730023-.154349.7664402-.253719 1.168-.295 1.1829486-.0844338 2.2941285-.5987635 3.124-1.446.8489448-.8319453 1.3646168-1.94544105 1.45-3.131.0720724-1.56025998 1.3198159-2.80930322 2.88-2.883.6771257-.06716151 1.3364597-.2565591 1.946-.559.597 2.015-.249 4.717-2.326 6.788z"/><path id="Shape" d="m54 3h-6c-1.1045695 0-2 .8954305-2 2v39h-2c-.7595491-.0046521-1.4554332.4236885-1.7934187 1.1039107-.3379854.6802223-.2590547 1.493549.2034187 2.0960893l6.992 9.011c.3784465.5002749.9707177.7927042 1.598.789.6236025.0033894 1.2125104-.28662 1.59-.783l7-9.02.007-.009c.4551899-.6037378.5289099-1.4132828.1902599-2.0893104-.3386499-.6760276-1.0311595-1.1017368-1.7872599-1.0986896h-2v-39c0-1.1045695-.8954305-2-2-2zm1 43 3.005-.024-7.015 9.015-6.99-8.991h3c.5522847 0 1-.4477153 1-1v-40h6v40c0 .5522847.4477153 1 1 1z"/></g></g></svg>