<svg height="512" viewBox="0 0 60 45" width="512" xmlns="http://www.w3.org/2000/svg"><g id="Page-1" fill="none" fill-rule="evenodd"><g id="018---Latte-Art" fill="rgb(0,0,0)" fill-rule="nonzero"><path id="Shape" d="m25 45c7.589 0 13.59-2.207 17.837-6.558.9072337-.9381142 1.7244794-1.9592528 2.441-3.05.862508-.4431867 1.779286-.77164 2.727-.977.376-.087.777-.173 1.2-.262 3.943-.841 9.9-2.112 10.707-8.018.0560502-.412295.0841144-.8279126.084-1.244 0-.011.006-.02.006-.031v-4.61c.09308-1.8677691-.7511541-3.6590006-2.251-4.776-2.151-1.555-5.282-1.524-7.854-.906-1.138-8.153-11.866-14.568-24.897-14.568-13.785 0-25 7.178-25 16 0 .094.009.186.011.279-.117 5.484.673 15.521 7.155 22.163 4.248 4.351 10.249 6.558 17.834 6.558zm16.406-7.955c-3.854 3.955-9.374 5.955-16.406 5.955s-12.546-2-16.4-5.955c-3.931-4.027-5.582-9.488-6.225-14.251 3.997 5.434 12.634 9.206 22.625 9.206s18.644-3.779 22.638-9.221c-.638 4.748-2.288 10.228-6.229 14.266zm16.519-11.18c-.615 4.512-5.343 5.521-9.142 6.332-.43.092-.842.179-1.226.268-.245.056-.479.121-.713.186 1.660737-3.5832796 2.6678953-7.4344576 2.974-11.372 2.788-.806 5.522-.606 6.938.561 1.027.844 1.421 2.198 1.172 4.025zm-1.35-8.77c.9758281.7447249 1.5114018 1.930504 1.425 3.155v.026c-2.132-1.733-5.335-1.749-8.039-1.106.039-.923.049-1.781.038-2.557 2.617-.72 5.148-.554 6.579.487zm-31.575-15.095c12.6 0 22.853 6.2 22.993 13.842v.018c0 .007 0 .03.006.046v.094c0 7.72-10.317 14-23 14-12.538 0-22.759-6.14-22.988-13.74 0-.048 0-.1 0-.15 0-.018-.01-.033-.01-.05s0-.04 0-.06c-.001-7.72 10.316-14 22.999-14z"/><path id="Shape" d="m25 39c-5.91 0-10.467-1.6-13.543-4.75-.3865993-.3954359-1.0205641-.4025993-1.416-.016-.39543585.3865993-.4025993 1.0205641-.016 1.416 3.475 3.55 8.508 5.35 14.975 5.35.5522847 0 1-.4477153 1-1s-.4477153-1-1-1z"/><path id="Shape" d="m5.583 20.381c.21096533.2888492.56000456.4432083.915638.4049315.35563344-.0382767.6638319-.263374.8085-.5905.14466811-.3271259.10382733-.7065823-.107138-.9954315-.73287323-.910346-1.15358113-2.0322337-1.2-3.2 0-4.721 8.126-10 19-10 4.2755767-.06963787 8.5125123.81875183 12.4 2.6.4949662.2283467 1.0816298.01821849 1.319061-.47245463.2374313-.49067313.0381524-1.08111019-.448061-1.32754537-4.159145-1.91241983-8.693768-2.86916345-13.271-2.8-12.562 0-21 6.2-21 12 .04129402 1.5928549.59658794 3.1296475 1.583 4.381z"/><path id="Shape" d="m44 16c0 4.721-8.126 10-19 10-4.8248841.105173-9.5933631-1.0535067-13.832-3.361-.3081207-.1922522-.6962535-.2023375-1.0139427-.0263466-.31768925.175991-.51498793.5103889-.51541528.873568-.00042736.3631792.1960838.6980405.51335798.8747786 4.5464533 2.4892655 9.6657542 3.7439218 14.848 3.639 12.562 0 21-6.2 21-12-.102518-2.0965813-1.0051586-4.0740157-2.522-5.525-.2438922-.2644092-.6110034-.3774526-.9613847-.2960363-.3503812.0814163-.6300366.3447456-.7323567.6896024-.1023202.3448568-.0115371.7180965.2377414.9774339 1.1618973 1.0839925 1.8688728 2.5687126 1.978 4.154z"/><path id="Shape" d="m25 24c6.729 0 12-3.075 12-7 0-.5522847-.4477153-1-1-1s-1 .4477153-1 1c0 2.542-4.028 4.714-9 4.974v-2.022c3.162-.233 5.293-1.51 5.837-2.452.2597437-.4569713.1064382-1.0377546-.345-1.307-.4647209-.2778199-1.0650311-.150521-1.377.292-1.1707884.9322369-2.6185163 1.4483528-4.115 1.467v-2.226c3.965-1.281 6-2.866 6-4.726 0-1.71-1.72-3-4-3-1.0432321-.01856525-2.0745359.22413492-3 .706-.9254641-.48186508-1.9567679-.72456525-3-.706-2.28 0-4 1.29-4 3 0 1.86 2.035 3.445 6 4.726v2.226c-1.4906801-.0216515-2.9330967-.5317316-4.106-1.452-.1727115-.3209394-.5063525-.5225002-.8707953-.5260692-.3644429-.003569-.7019673.1914191-.880931.5089145s-.1710225.7072132.0207263 1.0171547c.544.942 2.675 2.219 5.837 2.452v2.022c-4.972-.26-9-2.432-9-4.974 0-.5522847-.4477153-1-1-1s-1 .4477153-1 1c0 3.925 5.271 7 12 7zm-5-13c0-.409.712-1 2-1 .8323493-.04477085 1.6563288.1853812 2.345.655.3781996.3185322.9308004.3185322 1.309 0 .6885654-.4706524 1.5132156-.70089365 2.346-.655 1.288 0 2 .591 2 1 0 .537-1.062 1.75-5 2.956-3.937-1.206-5-2.419-5-2.956z"/></g></g></svg>