<svg height="512" viewBox="0 0 50 60" width="512" xmlns="http://www.w3.org/2000/svg"><g id="Page-1" fill="none" fill-rule="evenodd"><g id="027---Bean-Weight" fill="rgb(0,0,0)" fill-rule="nonzero"><path id="Shape" d="m1.651 51.272c-.2023174.7993926-.06458929 1.6468767.38045587 2.3410638s1.15767409 1.1731007 1.96854413 1.3229362v2.064c0 1.6568542 1.34314575 3 3 3h7c1.6568542 0 3-1.3431458 3-3v-2h16v2c0 1.6568542 1.3431458 3 3 3h7c1.6568542 0 3-1.3431458 3-3v-2.064c.81087-.1498355 1.523499-.6287491 1.9685441-1.3229362.4450452-.6941871.5827733-1.5416712.3804559-2.3410638l-6.069-24.272h3.72c2.209139 0 4-1.790861 4-4v-7.5c0-1.9329966-1.5670034-3.5-3.5-3.5s-3.5 1.5670034-3.5 3.5v4.5h-9.616c.109-.1.223-.188.327-.292 3.694-3.708 2.789-10.624-2.011-15.408-4.785-4.8-11.7-5.7-15.411-2.008-3.689 3.708-2.789 10.622 2.011 15.408.8811167.881145 1.8648202 1.6533354 2.93 2.3h-14.23v-4.5c0-1.9329966-1.56700338-3.5-3.5-3.5s-3.5 1.5670034-3.5 3.5v7.5c0 2.209139 1.790861 4 4 4h3.72zm13.349 5.728c0 .5522847-.4477153 1-1 1h-7c-.55228475 0-1-.4477153-1-1v-2h9zm29 0c0 .5522847-.4477153 1-1 1h-7c-.5522847 0-1-.4477153-1-1v-2h9zm1-41.5c0-.8284271.6715729-1.5 1.5-1.5s1.5.6715729 1.5 1.5v4.5h-3zm-22.8-13.506c3.0787046.14102479 5.9816311 1.47485031 8.094 3.719 3.254 3.245 4.462 7.559 3.261 10.638-.93459-.5723984-1.9899562-.9185941-3.082-1.011-2.4177528-.1322699-4.3478889-2.06413-4.478-4.482-.1062816-1.6039627-.801881-3.11198519-1.953-4.234-1.1203801-1.14805541-2.6261918-1.84057917-4.227-1.944-.819598-.05498997-1.6137861-.30714037-2.315-.735.07-.079.132-.164.207-.239 1.2076382-1.14985278 2.8263976-1.76666025 4.493-1.712zm-2.489 14.293c-3.254-3.245-4.462-7.559-3.261-10.638.93459.57239835 1.9899562.91859407 3.082 1.011 2.4177528.13226986 4.3478889 2.06413003 4.478 4.482.1062816 1.6039627.801881 3.1119852 1.953 4.234 1.1191229 1.1469386 2.6229513 1.8393693 4.222 1.944.8206279.0545134 1.6158998.3066812 2.318.735-.07.079-.132.164-.207.239-1.1297938 1.0831644-2.630905 1.6934827-4.196 1.706h-.1c-3.1464244-.0784359-6.130027-1.4151677-8.283-3.711zm-17.711-.787c0-.8284271.67157288-1.5 1.5-1.5s1.5.6715729 1.5 1.5v4.5h-3zm0 7.5v-1h46v1c0 1.1045695-.8954305 2-2 2h-42c-1.1045695 0-2-.8954305-2-2zm38.219 4 6.19 24.758c.0745277.2988116.0072171.6152959-.1824634.8579151-.1896805.2426191-.4805712.3843078-.7885366.3840849h-40.876c-.30796542.0002229-.59885606-.1414658-.78853658-.3840849-.18968051-.2426192-.25699115-.5591035-.18246342-.8579151l6.19-24.758z"/><path id="Shape" d="m12 49h-3.6l.682-2.729c.12323676-.5315029-.20230858-1.0636869-.73162123-1.1960151s-1.06699808.1840482-1.20837877.7110151l-.993 3.971c-.07502112.2994648-.00751992.6167921.18289361.8597941.19041353.2430021.48239.3844333.79110639.3832059h4.877c.5522847 0 1-.4477153 1-1s-.4477153-1-1-1z"/><path id="Shape" d="m14 40c0 6.0751322 4.9248678 11 11 11s11-4.9248678 11-11-4.9248678-11-11-11c-6.0721626.0071635-10.9928365 4.9278374-11 11zm20 0c0 4.9705627-4.0294373 9-9 9s-9-4.0294373-9-9 4.0294373-9 9-9c4.9682782.0055111 8.9944889 4.0317218 9 9z"/><path id="Shape" d="m24 34v3.184c-1.3775467.4870363-2.2038721 1.8956662-1.9567957 3.3357331.2470764 1.4400668 1.4956868 2.492694 2.9567957 2.492694s2.7097193-1.0526272 2.9567957-2.492694c.2470764-1.4400669-.579249-2.8486968-1.9567957-3.3357331v-3.184c0-.5522847-.4477153-1-1-1s-1 .4477153-1 1zm1 7c-.5522847 0-1-.4477153-1-1s.4477153-1 1-1 1 .4477153 1 1-.4477153 1-1 1z"/></g></g></svg>