<svg height="512" viewBox="0 0 60 60" width="512" xmlns="http://www.w3.org/2000/svg"><g id="Page-1" fill="none" fill-rule="evenodd"><g id="035---Open-Cafe" fill="rgb(0,0,0)" fill-rule="nonzero"><path id="Shape" d="m55 0h-50c-2.76005315.00330612-4.99669388 2.23994685-5 5v50c.00330612 2.7600532 2.23994685 4.9966939 5 5h50c2.7600532-.0033061 4.9966939-2.2399468 5-5v-50c-.0033061-2.76005315-2.2399468-4.99669388-5-5zm3 55c0 1.6568542-1.3431458 3-3 3h-50c-1.65685425 0-3-1.3431458-3-3v-50c0-1.65685425 1.34314575-3 3-3h50c1.6568542 0 3 1.34314575 3 3z"/><path id="Shape" d="m5 10c.55228475 0 1-.44771525 1-1v-3h3c.55228475 0 1-.44771525 1-1s-.44771525-1-1-1h-4c-.55228475 0-1 .44771525-1 1v4c0 .55228475.44771525 1 1 1z"/><path id="Shape" d="m14 37c-2.626 0-4 4.527-4 9s1.374 9 4 9 4-4.527 4-9-1.374-9-4-9zm0 16c-.581 0-2-2.453-2-7s1.419-7 2-7 2 2.453 2 7-1.419 7-2 7z"/><path id="Shape" d="m37 39c.5522847 0 1-.4477153 1-1s-.4477153-1-1-1h-4c-.5522847 0-1 .4477153-1 1v16c0 .5522847.4477153 1 1 1h4c.5522847 0 1-.4477153 1-1s-.4477153-1-1-1h-3v-6h3c.5522847 0 1-.4477153 1-1s-.4477153-1-1-1h-3v-6z"/><path id="Shape" d="m23 37c-.5522847 0-1 .4477153-1 1v15.889c0 .5522847.4477153 1 1 1s1-.4477153 1-1v-3.989c2.9855265-.658663 5.0833016-3.343815 5-6.4.1285823-3.4482794-2.5524673-6.3527499-6-6.5zm1 10.84v-8.68c1.8055764.6816724 3.0004882 2.4100302 3.0004882 4.34s-1.1949118 3.6583276-3.0004882 4.34z"/><path id="Shape" d="m48 37c-.5522847 0-1 .4477153-1 1v10.485l-4.063-10.836c-.1691227-.4536404-.6389233-.7209741-1.1153057-.6346498s-.8225049.5015099-.8216943.9856498v16c0 .5522847.4477153 1 1 1s1-.4477153 1-1v-10.485l4.063 10.836c.1691227.4536404.6389233.7209741 1.1153057.6346498s.8225049-.5015099.8216943-.9856498v-16c0-.5522847-.4477153-1-1-1z"/><path id="Shape" d="m39.559 29.917c.5385939-.5554193 1.0265304-1.15781 1.458-1.8.4712454-.2423596.971675-.423173 1.489-.538.223-.052.462-.1.71-.157 2.322-.5 6.208-1.339 6.726-5.189.3216335-1.43969-.1721347-2.9398084-1.286-3.907-1.3488845-.9366947-3.0348828-1.2494965-4.63-.859.015-.52.014-1 0-1.437h-.026c0-.01 0-.019 0-.029 0-1.211-.612-2.98-3.53-4.533-.3154655-.1679149-.6965492-.1547757-.9997005.034468-.3031513.1892438-.4823142.5258415-.47.8830001.0123143.3571585.214235.6806171.5297005.8485319 1.593.846 2.47 1.829 2.47 2.766 0 2.365-5.544 5-13.5 5-3.5965994.0985171-7.1733204-.5653659-10.495-1.948-.0375433-.0197377-.0762858-.037105-.116-.052-1.809-.877-2.849-1.935-2.882-2.948v-.052c.0004641-.007326.0004641-.014674 0-.022.018-1.219 1.543-2.519 4.091-3.482.5166624-.1952327.7772327-.7723376.582-1.289s-.7723376-.7772327-1.289-.582c-3.478 1.313-5.391 3.222-5.391 5.375 0 .025.007.048.008.073-.076 3.412.413 9.688 4.471 13.844 2.645 2.709 6.359 4.083 11.04 4.083s8.396-1.374 11.04-4.083zm7.83-10.044c.5502683.5457394.7678884 1.3434257.571 2.093-.307 2.277-2.426 2.91-5.166 3.5l-.386.085c.7876303-1.9212706 1.2863744-3.9485979 1.48-6.016 1.1603656-.4039824 2.4393492-.2805044 3.501.338zm-18.87 12.127c-4.122 0-7.355-1.17-9.609-3.479-2.1757795-2.4667525-3.4871588-5.5761435-3.735-8.856 2.653 2.028 7.512 3.335 13.325 3.335 5.846 0 10.726-1.322 13.37-3.369-.2453623 3.2916043-1.5593484 6.4129358-3.742 8.889-2.254 2.309-5.487 3.48-9.609 3.48z"/><path id="Shape" d="m22.324 13.429c-.8165367.6049822-1.3057349 1.5549281-1.324 2.571 0 .5522847.4477153 1 1 1s1-.4477153 1-1c0-.459.2-.657.676-1.1.8309154-.5926703 1.3241726-1.5503734 1.3241726-2.571s-.4932572-1.9783297-1.3241726-2.571c-.476-.439-.676-.636-.676-1.095s.2-.654.675-1.094c.816602-.6041449 1.3061862-1.55338394 1.325-2.569 0-.55228475-.4477153-1-1-1s-1 .44771525-1 1c0 .458-.2.654-.675 1.094-.816602.6041449-1.3061862 1.55338394-1.325 2.569.0182651 1.01607186.5074633 1.9660178 1.324 2.571.481.441.676.639.676 1.1s-.195.654-.676 1.095z"/><path id="Shape" d="m28.324 13.429c-.8165367.6049822-1.3057349 1.5549281-1.324 2.571 0 .5522847.4477153 1 1 1s1-.4477153 1-1c0-.459.2-.657.676-1.1.8309154-.5926703 1.3241726-1.5503734 1.3241726-2.571s-.4932572-1.9783297-1.3241726-2.571c-.476-.439-.676-.636-.676-1.095s.2-.654.675-1.094c.816602-.6041449 1.3061862-1.55338394 1.325-2.569 0-.55228475-.4477153-1-1-1s-1 .44771525-1 1c0 .458-.2.654-.675 1.094-.816602.6041449-1.3061862 1.55338394-1.325 2.569.0182651 1.01607186.5074633 1.9660178 1.324 2.571.481.441.676.639.676 1.1s-.195.654-.676 1.095z"/><path id="Shape" d="m34.324 13.429c-.8165367.6049822-1.3057349 1.5549281-1.324 2.571 0 .5522847.4477153 1 1 1s1-.4477153 1-1c0-.459.2-.657.676-1.1.8309154-.5926703 1.3241726-1.5503734 1.3241726-2.571s-.4932572-1.9783297-1.3241726-2.571c-.476-.439-.676-.636-.676-1.095s.2-.654.675-1.094c.816602-.6041449 1.3061862-1.55338394 1.325-2.569 0-.55228475-.4477153-1-1-1s-1 .44771525-1 1c0 .458-.2.654-.675 1.094-.816602.6041449-1.3061862 1.55338394-1.325 2.569.0182651 1.01607186.5074633 1.9660178 1.324 2.571.481.441.676.639.676 1.1s-.195.654-.676 1.095z"/></g></g></svg>